<svg xmlns="http://www.w3.org/2000/svg" width="89" height="89" fill="currentColor" viewBox="0 0 89 89">
  <path d="M37.083 77.875h14.834a7.417 7.417 0 0 1-14.834 0Zm40.792-7.417v3.709h-66.75v-3.709l7.417-7.416v-22.25c0-11.496 7.528-21.62 18.541-24.883v-1.076a7.417 7.417 0 1 1 14.834 0v1.076c11.014 3.263 18.541 13.387 18.541 24.883v22.25l7.417 7.416ZM63.042 40.792a18.542 18.542 0 0 0-37.084 0V66.75h37.084V40.792ZM73.24 11.83l-5.266 5.265a33.308 33.308 0 0 1 9.901 23.697h7.417c0-10.866-4.302-21.323-12.052-28.962ZM3.708 40.792h7.417c0-8.9 3.56-17.43 9.901-23.697l-5.265-5.265A40.644 40.644 0 0 0 3.707 40.792Z"/>
</svg>
